<svg fill="white" viewBox="0 0 132 132" xmlns="http://www.w3.org/2000/svg" class="css-19o308k"><title>neem contact met ons op</title><circle cx="66" cy="66" r="66"></circle><path d="M49.2493 49.3021C49.2493 45.488 55.2101 39.2901 67.1317 39.2901C79.2916 39.2901 84.0603 45.9647 84.0603 49.3021C84.0603 52.6394 82.8681 56.4535 92.8822 56.4535C102.896 56.4535 100.989 50.494 100.989 48.1102C100.989 45.7264 96.6971 30.9468 67.1317 30.9468C37.5662 30.9468 32.3207 45.0112 32.3207 48.1102C32.3207 51.2091 29.9364 56.4535 40.4274 56.4535C50.9184 56.4535 49.2493 53.1161 49.2493 49.3021Z" fill="#FA6400"></path><path d="M47.5803 59.0756C49.1063 56.5965 52.19 56.2945 53.5411 56.4535V50.7323C53.5411 48.5869 56.1638 48.1102 58.5481 48.1102C60.9325 48.1102 62.363 50.0172 62.363 52.1626V56.9302H70.7081C70.4697 54.8643 70.279 50.4463 71.4234 49.3021C72.854 47.8718 77.6226 48.1102 78.8148 49.3021C79.7685 50.2556 79.689 54.7848 79.5301 56.9302C80.4043 56.7713 82.3913 56.5488 83.345 56.9302C84.5371 57.407 86.683 60.5059 89.3058 64.5584C91.9285 68.6108 95.9818 76.4774 96.4587 79.0995C96.9355 81.7217 96.9355 89.1115 96.9355 91.4953C96.9355 93.8791 94.3128 95.3094 92.1669 95.3094C90.021 95.3094 43.527 95.071 40.4274 95.3094C37.3278 95.5477 36.6125 93.4023 36.6125 92.2104V81.245C36.6125 78.6228 45.6729 62.1746 47.5803 59.0756Z" fill="#FA6400"></path><ellipse cx="67.0737" cy="75.7329" fill="#0E74E1" rx="14.4624" ry="13.9958"></ellipse><g clip-path="url(#serviceIconCallClipPath)"><path d="M72.5858 78.2969L72.6062 73.0192C72.5986 72.8657 72.5942 72.8147 72.578 72.7305V72.7297C72.4295 71.7643 71.6222 71.0697 70.074 71.0697C69.2855 71.0697 68.5518 71.2983 67.8985 71.7072C67.5685 71.2983 66.9251 71.0697 66.1375 71.0697C65.3236 71.0697 64.6351 71.2502 63.952 71.6632V71.2053H61.0117L61.0129 72.6993C61.4515 72.6993 61.6821 72.9669 61.6828 73.331L61.682 78.3408C61.682 78.7505 61.4554 79.0073 61.0169 79.0067L61.0176 80.3949L64.6702 80.3943L64.6696 79.0066C64.2994 79.0066 64.107 78.7499 64.1076 78.3402L64.1049 73.7184C64.1049 73.2252 64.4925 73.0001 65.0139 73.0005C65.5173 73.0005 65.9249 73.2164 65.9249 73.7184L65.9288 80.3956H68.9146L68.9135 79.0066C68.5434 79.0066 68.351 78.7498 68.3515 78.3402L68.3482 73.7183C68.3482 73.2036 68.7535 72.9998 69.2562 73.0002C69.7589 73.0005 70.1662 73.2144 70.1671 73.7181C70.1671 73.8722 70.1682 75.2953 70.1691 76.7883C70.1643 78.5408 70.1594 80.3939 70.1594 80.3939H70.1713V80.3952H70.8545L73.1371 80.3997L73.1419 79.0143C72.7177 79.0088 72.5794 78.7012 72.5858 78.2969Z" fill="white"></path></g><defs><clipPath id="serviceIconCallClipPath"><rect fill="white" height="9.33057" transform="translate(61.0117 71.0697)" width="12.1297"></rect></clipPath></defs></svg>