<svg aria-hidden="true" version="1.1" viewBox="30 30 135 70" xmlns="http://www.w3.org/2000/svg" class="css-b8quj5"><path d="M80.7654,59.8215c-0.5781,0-0.8375,0.3449-1.0533,0.8433C66.19,91.9472,65.0526,94.4233,65.0526,94.4233h7.663  l1.5972-3.926h11.5474l1.601,3.926h9.0161c0,0-0.7725-1.6071-14.659-33.7585C81.6032,60.167,81.3422,59.8215,80.7654,59.8215z  M76.7483,84.5108l3.3314-8.1888l3.3393,8.1888H76.7483z M60.5686,60.5366c0.4196-0.42,0.8462-0.7153,1.5101-0.7153v34.602h-7.1969  V77.879l-8.3228,8.3183l-8.3229-8.3186v16.5446h-7.1967v-34.602c0.664,0,1.0908,0.2953,1.5101,0.7153L46.559,74.5485  L60.5686,60.5366z M119.2031,78.6168c2.6484-1.5864,4.6579-4.3599,4.6579-8.3276c0-3.1229-1.2468-5.6897-3.4073-7.4316  c-2.1905-1.766-4.7289-2.7177-9.9138-2.7177H99.4513v34.2834h8.1941V81.6611c0.0633,0,1.8213,0,2.5382,0  c2.7675,0,4.159,1.0484,5.318,3.8335c0.9798,2.3546,1.6722,5.1496,2.5724,8.9288h9.1388c-1.2968-3.8905-1.9463-5.7248-2.9218-8.4691  C122.9601,82.2101,121.3409,79.9027,119.2031,78.6168z M113.9618,74.4062c-0.9868,0.7641-2.2676,1.0026-4.5714,1.0026  c-0.6101,0-1.7449,0-1.7449,0s-0.0168-9.1373,0-9.1373c0.0306,0,0.9766,0,1.7449,0c2.4053,0,3.601,0.2652,4.568,0.9997  c1.1068,0.8401,1.6005,2.1023,1.6005,3.563C115.5589,72.4231,115.0067,73.5971,113.9618,74.4062z M154.6407,88.5938  c-1.9557,4.5243-6.7482,6.6505-12.2086,6.6505c-5.6145,0-10.2609-1.8217-13.3831-5.6024l4.7197-4.943  c2.1335,2.6743,5.0392,4.1943,8.2963,4.1158c2.3498-0.0565,3.7796-0.9544,4.3528-2.2739c0.6552-1.5093,0.0408-2.9054-1.063-3.7722  c-3.0919-2.4276-10.2339-2.5718-13.6157-7.3003c-1.7512-2.449-2.2372-5.8487-0.814-9.1117  c1.8319-4.1996,5.9414-6.8329,11.3891-6.8329c4.6698,0,9.1096,1.7782,11.8855,4.7301l-4.7129,4.9351  c-1.7599-2.0885-4.2922-3.3741-7.1211-3.3741c-2.0526,0-3.4478,0.9181-3.8667,2.319c-0.3396,1.1355,0.0295,2.3185,1.0659,3.1257  c2.6382,2.0552,9.3152,2.6589,12.9957,6.1524C155.7389,80.4286,156.3518,84.6355,154.6407,88.5938z M39.3225,34.8165  c0,2.3933-1.7388,3.7579-4.2258,3.7579h-2.3933v5.5536h-1.6641V31.0394h4.0574C37.5837,31.0394,39.3225,32.4232,39.3225,34.8165z  M32.7035,37.0418h2.3933c1.4958,0,2.5427-0.8228,2.5427-2.2253c0-1.4397-1.0469-2.2432-2.5427-2.2432h-2.3933V37.0418z  M46.0538,36.5365c0,0-0.168-0.0372-0.4486-0.0372c-1.6827,0-2.711,1.3467-2.711,3.3097v4.3191h-1.5894v-9.087h1.5705v1.6083  c0.4114-1.0472,1.5894-1.7578,2.7861-1.7578c0.2244,0,0.3925,0.0372,0.3925,0.0372V36.5365z M56.5065,39.5845  c0,2.6363-2.0194,4.7494-4.7494,4.7494c-2.7296,0-4.7491-2.113-4.7491-4.7494s2.0194-4.7494,4.7491-4.7494  C54.4871,34.8351,56.5065,36.9482,56.5065,39.5845z M48.6347,39.5845c0,1.8136,1.3464,3.2725,3.1224,3.2725  c1.7764,0,3.1227-1.4589,3.1227-3.2725s-1.3464-3.2719-3.1227-3.2719C49.9811,36.3127,48.6347,37.7709,48.6347,39.5845z  M65.1642,35.041h1.6077v9.087h-1.6077v-1.3089c-0.5611,0.8972-1.5147,1.5147-2.8797,1.5147c-2.2997,0-3.6271-1.5519-3.6271-3.9638  V35.041h1.608v5.1418c0,1.6263,0.8225,2.6549,2.3558,2.6549s2.543-1.1966,2.543-3.0474V35.041z M78.4773,31.0394V44.128h-1.5894  v-1.4397c-0.6544,0.9908-1.8883,1.6455-3.2161,1.6455c-2.5802,0-4.5621-2.0566-4.5621-4.7494c0-2.6735,1.9819-4.7494,4.5621-4.7494  c1.3278,0,2.543,0.5797,3.2161,1.5705v-5.3663H78.4773z M73.8588,36.3127c-1.776,0-3.1224,1.4397-3.1224,3.2719  s1.3464,3.2725,3.1224,3.2725c1.7764,0,3.1227-1.4403,3.1227-3.2725S75.6351,36.3127,73.8588,36.3127z M83.0776,31.0394V44.128  h-1.608V31.0394H83.0776z M89.4536,45.5119c-0.8228,1.963-1.6269,2.7293-2.9916,2.7293c-0.3928,0-0.7295-0.0744-0.9911-0.1866  v-1.4211c0.2055,0.075,0.5236,0.1494,0.86,0.1494c0.7295,0,1.1595-0.4297,1.6455-1.5891l0.5422-1.3089l-3.6085-8.844H86.63  l2.73,7.0118l2.8047-7.0118h1.6641L89.4536,45.5119z M100.2426,48.0168V35.041h1.5894v1.4397  c0.6544-0.9908,1.8883-1.6455,3.2157-1.6455c2.5802,0,4.5624,2.0566,4.5624,4.7494c0,2.6735-1.9822,4.7494-4.5624,4.7494  c-1.3275,0-2.5427-0.5797-3.2157-1.5705v5.2534H100.2426z M104.8608,36.3127c-1.776,0-3.1224,1.4397-3.1224,3.2719  s1.3464,3.2725,3.1224,3.2725c1.7764,0,3.1224-1.4403,3.1224-3.2725S106.6372,36.3127,104.8608,36.3127z M117.1271,38.1262  c0-1.1409-0.8039-1.8322-2.1499-1.8322c-1.2342,0-2.1502,0.5047-3.0852,1.3647V35.976c0.8228-0.6734,1.8136-1.1409,3.1224-1.1409  c2.3372,0,3.6836,1.2903,3.6836,3.4033v5.8896h-1.5147v-1.1966c-0.7102,0.9164-1.8136,1.4025-3.0102,1.4025  c-1.608,0-2.7486-1.1037-2.7486-2.5991c0-1.6263,1.0283-2.5991,3.0291-2.9358l2.6735-0.4483V38.1262z M114.4721,42.9128  c1.5519,0,2.6738-1.01,2.6738-2.4119v-0.767l-2.4308,0.4303c-1.0844,0.2059-1.6827,0.6919-1.6827,1.4769  C113.0324,42.4081,113.6308,42.9128,114.4721,42.9128z M126.2888,36.5365c0,0-0.168-0.0372-0.4483-0.0372  c-1.6827,0-2.7107,1.3467-2.7107,3.3097v4.3191h-1.5898v-9.087h1.5705v1.6083c0.4117-1.0472,1.5891-1.7578,2.7858-1.7578  c0.2245,0,0.3925,0.0372,0.3925,0.0372V36.5365z M130.4777,32.9093h0.0564v2.1316h2.5421v1.4397h-2.5421v4.8052  c0,1.0658,0.4669,1.5519,1.5141,1.5519c0.3553,0,0.7484-0.0936,1.028-0.2802v1.4961c-0.3174,0.168-0.7849,0.2802-1.4019,0.2802  c-1.7199,0-2.7486-1.0658-2.7486-2.8236v-5.0296h-1.5705v-0.2059L130.4777,32.9093z M148.6338,39.5845  c0,2.6363-2.0201,4.7494-4.7494,4.7494c-2.73,0-4.7494-2.113-4.7494-4.7494s2.0194-4.7494,4.7494-4.7494  C146.6138,34.8351,148.6338,36.9482,148.6338,39.5845z M140.7614,39.5845c0,1.8136,1.3467,3.2725,3.1231,3.2725  s3.1224-1.4589,3.1224-3.2725s-1.3461-3.2719-3.1224-3.2719S140.7614,37.7709,140.7614,39.5845z M151.1022,44.128v-7.6474h-1.4025  V35.041h1.4025v-0.7849c0-2.3189,1.3275-3.4405,3.1224-3.4405c0.6541,0,1.0844,0.1122,1.3647,0.2238v1.4403  c-0.2802-0.1122-0.6355-0.1873-1.103-0.1873c-1.0094,0-1.7764,0.5047-1.7764,1.9258v0.8228h2.5434v1.4397h-2.5434v7.6474H151.1022z"></path></svg>