<svg fill="white" viewBox="0 0 132 132" xmlns="http://www.w3.org/2000/svg" class="css-19o308k"><title>vind een vestiging</title><circle cx="66" cy="66" r="66"></circle><path d="M25.3795 96.0674L38.3209 81.4005C38.5045 81.1925 38.7685 81.0733 39.0459 81.0733H94.7695C95.0707 81.0733 95.3547 81.2136 95.5376 81.4529L106.753 96.1198C107.24 96.756 106.786 97.674 105.985 97.674H26.1046C25.2719 97.674 24.8286 96.6917 25.3795 96.0674Z" fill="#5A1F06"></path><path clip-rule="evenodd" d="M55.9418 74.8757C47.4815 71.3397 41.5366 62.9854 41.5366 53.2427C41.5366 40.2991 52.0294 29.8064 64.9729 29.8064C77.9164 29.8064 88.4092 40.2991 88.4092 53.2427C88.4092 62.9776 82.4738 71.3262 74.0244 74.8671C69.9636 77.3467 66.7915 81.0577 64.9761 85.4679C63.1627 81.0627 59.9959 77.3552 55.9418 74.8757Z" fill="#D70100" fill-rule="evenodd"></path><g clip-path="url(#serviceIconStoreClipPath)"><path d="M72.9128 58.2415L72.9439 49.9562C72.9324 49.7153 72.9256 49.6352 72.9009 49.5031V49.5017C72.6737 47.9862 71.4389 46.8959 69.0708 46.8959C67.8646 46.8959 66.7424 47.2547 65.743 47.8967C65.2383 47.2547 64.2541 46.8959 63.0494 46.8959C61.8045 46.8959 60.7513 47.1791 59.7064 47.8276V47.1087H55.209L55.2108 49.4542C55.8816 49.4542 56.2344 49.8741 56.2355 50.4457L56.2342 58.3104C56.2342 58.9536 55.8877 59.3567 55.2169 59.3558L55.218 61.5351L60.805 61.5341L60.8041 59.3556C60.2379 59.3556 59.9435 58.9526 59.9444 58.3095L59.9404 51.0539C59.9404 50.2797 60.5333 49.9262 61.3308 49.927C62.1008 49.927 62.7242 50.2659 62.7242 51.0539L62.7302 61.5362H67.2973L67.2957 59.3556C66.7295 59.3556 66.4353 58.9525 66.436 58.3095L66.4309 51.0537C66.4309 50.2457 67.0509 49.9258 67.8198 49.9264C68.5888 49.927 69.2117 50.2627 69.2132 51.0535C69.2132 51.2954 69.2149 53.5295 69.2161 55.8732C69.2088 58.6245 69.2013 61.5336 69.2013 61.5336H69.2196V61.5356H70.2647L73.7561 61.5426L73.7635 59.3677C73.1146 59.3592 72.9031 58.8762 72.9128 58.2415Z" fill="white"></path></g><defs><clipPath id="serviceIconStoreClipPath"><rect fill="white" height="14.6477" transform="translate(55.209 46.8958)" width="18.5537"></rect></clipPath></defs></svg>